<svg xmlns="http://www.w3.org/2000/svg" viewBox="0 0 1120 330" role="img" aria-labelledby="title desc">
  <title id="title">StickS3 Wi-Fi setup and recovery</title>
  <desc id="desc">Connect to the device setup network, configure home Wi-Fi, then the device retries connection. The setup access point stops after a successful connection; after one minute without an IP address it appears again while retries continue.</desc>
  <defs>
    <linearGradient id="bg" x1="0" y1="0" x2="1" y2="1"><stop stop-color="#101a31"/><stop offset="1" stop-color="#182644"/></linearGradient>
    <marker id="arr" markerWidth="10" markerHeight="10" refX="8" refY="5" orient="auto"><path d="M0 0 10 5 0 10z" fill="#6fd4e5"/></marker>
    <style>text{font-family:Montserrat,Arial,sans-serif;fill:#eaf2ff}.h{font-size:18px;font-weight:700}.p{font-size:14px;fill:#b9c8df}.n{font-size:12px;font-weight:700;letter-spacing:.1em;fill:#65d2e4}</style>
  </defs>
  <rect width="1120" height="330" rx="24" fill="url(#bg)"/>
  <path d="M260 150h44m222 0h44m222 0h44" fill="none" stroke="#6fd4e5" stroke-width="3" marker-end="url(#arr)"/>
  <path d="M770 218v58H128v-53" fill="none" stroke="#f4b95d" stroke-width="2" stroke-dasharray="7 6" marker-end="url(#arr)"/>
  <text x="440" y="302" text-anchor="middle" class="p">No IP after 60 seconds: setup AP starts while connection retries continue</text>
  <g transform="translate(36 75)">
    <rect width="224" height="150" rx="18" fill="#203653" stroke="#55bfd2" stroke-width="2"/>
    <text x="18" y="28" class="n">01 · CONNECT</text>
    <text x="18" y="61" class="h">Setup AP</text>
    <text x="18" y="88" class="p">Hermes-StickS3-Setup-XX</text>
    <text x="18" y="113" class="p">Open the captive portal</text>
    <text x="18" y="134" class="p">or http://192.168.4.1/</text>
  </g>
  <g transform="translate(306 75)">
    <rect width="220" height="150" rx="18" fill="#203653" stroke="#55bfd2" stroke-width="2"/>
    <text x="18" y="28" class="n">02 · CONFIGURE</text>
    <text x="18" y="61" class="h">SSID + password</text>
    <text x="18" y="89" class="p">Select a Wi-Fi network</text>
    <text x="18" y="113" class="p">Enter the gateway URL</text>
    <text x="18" y="135" class="p">and token, if required</text>
  </g>
  <g transform="translate(570 75)">
    <rect width="220" height="150" rx="18" fill="#203653" stroke="#a783e4" stroke-width="2"/>
    <text x="18" y="28" class="n">03 · CONNECT</text>
    <text x="18" y="61" class="h">Home network</text>
    <text x="18" y="89" class="p">Saved network:</text>
    <text x="18" y="113" class="p">connection retries</text>
    <text x="18" y="135" class="p">about every 5 seconds</text>
  </g>
  <g transform="translate(834 75)">
    <rect width="250" height="150" rx="18" fill="#203653" stroke="#79c59c" stroke-width="2"/>
    <text x="18" y="28" class="n">04 · CONNECTED</text>
    <text x="18" y="61" class="h">IP address obtained</text>
    <text x="18" y="89" class="p">Setup AP shuts down</text>
    <text x="18" y="113" class="p">Device is reachable</text>
    <text x="18" y="135" class="p">on the home network</text>
  </g>
</svg>
